Coordinates
version=1
nRows=8
nColumns=46
inDegrees=yes

Units are S.I. units (second, meters, Newtons, ...)
Angles are in degrees.

endheader
time	pelvis_tilt	pelvis_list	pelvis_rotation	pelvis_tx	pelvis_ty	pelvis_tz	bb_angle	bb_tx	bb_ty	bb_tz	hip_flexion_r	hip_adduction_r	hip_rotation_r	knee_angle_r	knee_angle_r_beta	ankle_angle_r	subtalar_angle_r	mtp_angle_r	crank_angle_r	hip_flexion_l	hip_adduction_l	hip_rotation_l	knee_angle_l	knee_angle_l_beta	ankle_angle_l	subtalar_angle_l	mtp_angle_l	crank_angle_l	lumbar_extension	lumbar_bending	lumbar_rotation	arm_flex_r	arm_add_r	arm_rot_r	elbow_flex_r	pro_sup_r	wrist_flex_r	wrist_dev_r	arm_flex_l	arm_add_l	arm_rot_l	elbow_flex_l	pro_sup_l	wrist_flex_l	wrist_dev_l
      7.50500000	    -12.96575984	     -4.08423314	     -1.34829272	      0.11325879	      1.13425372	     -0.23061585	      0.00000000	      0.50000000	      0.00000000	      0.25000000	     81.26609630	     -9.82003404	     -8.07965998	     86.13111548	      1.50327155	     17.35533145	      6.58207682	      0.00000000	      0.00000000	     59.03501791	    -17.80759583	     -4.39642694	     81.94959583	      1.43029027	      1.20421769	      3.63314414	      0.00000000	      0.00000000	    -55.57432170	      1.05930810	      4.30634425	     89.62520553	     -3.45865880	     28.24887797	     30.06789362	     25.72481497	      0.00000000	      0.00000000	     89.72267329	      1.13113887	     26.92606487	     28.94267945	     23.26412593	      0.00000000	      0.00000000
      7.51000000	    -12.92130595	     -4.09581361	     -1.32145263	      0.11331009	      1.13422177	     -0.23066010	      0.00000000	      0.50000000	      0.00000000	      0.25000000	     81.04789220	     -9.84800685	     -8.13031501	     85.91609402	      1.49951872	     17.48518117	      6.84155622	      0.00000000	      0.00000000	     59.10520379	    -17.87040195	     -4.37042643	     82.19159472	      1.43451395	      1.83314751	      3.08968779	      0.00000000	      0.00000000	    -55.63364289	      1.11192257	      4.32006064	     89.62447331	     -3.49945460	     28.30839786	     30.11851662	     26.13663192	      0.00000000	      0.00000000	     89.72062869	      1.05589748	     26.98622262	     28.99003316	     23.70459289	      0.00000000	      0.00000000
      7.51500000	    -13.01544116	     -3.97800291	     -1.31093022	      0.11327221	      1.13401585	     -0.23065361	      0.00000000	      0.50000000	      0.00000000	      0.25000000	     81.00484555	     -9.84199517	     -8.03304715	     85.70015443	      1.49574986	     17.63879237	      6.81539222	      0.00000000	      0.00000000	     59.29181907	    -17.78345558	     -4.42288533	     82.36225242	      1.43749248	      1.25593500	      3.70604388	      0.00000000	      0.00000000	    -55.49681989	      1.05306789	      4.07151485	     89.63631492	     -3.47809074	     29.31231706	     29.68143169	     27.01540463	      0.00000000	      0.00000000	     89.71807569	      0.56644925	     28.03708187	     28.96824561	     24.58947629	      0.00000000	      0.00000000
      7.52000000	    -12.86994954	     -4.09403876	     -1.22324148	      0.11316867	      1.13423372	     -0.23086396	      0.00000000	      0.50000000	      0.00000000	      0.25000000	     80.60297280	     -9.87532023	     -8.20389369	     85.43641397	      1.49114672	     17.95452015	      7.01755985	      0.00000000	      0.00000000	     59.32685180	    -17.81691696	     -4.23658493	     82.58080728	      1.44130699	      1.22543415	      3.74820704	      0.00000000	      0.00000000	    -55.75276310	      1.22559348	      4.22639532	     89.62079307	     -3.64324698	     28.57167628	     30.35070639	     27.74158597	      0.00000000	      0.00000000	     89.71753566	      0.69342550	     27.37567121	     29.20677957	     25.32001894	      0.00000000	      0.00000000
      7.52500000	    -12.96144255	     -4.02717537	     -1.17012721	      0.11317928	      1.13401282	     -0.23094770	      0.00000000	      0.50000000	      0.00000000	      0.25000000	     80.54028318	     -9.94137626	     -8.19711879	     85.20917783	      1.48718071	     18.06542508	      7.10148288	      0.00000000	      0.00000000	     59.53347410	    -17.75768033	     -4.24476070	     82.77371835	      1.44467392	      1.20941371	      3.78160978	      0.00000000	      0.00000000	    -55.60918882	      1.22270625	      4.20779672	     89.61812776	     -3.62155492	     28.31866111	     30.08530944	     28.13819225	      0.00000000	      0.00000000	     89.71994199	      0.92087560	     27.16523415	     28.81179443	     25.74027453	      0.00000000	      0.00000000
      7.53000000	    -12.89921806	     -3.98690971	     -1.15877452	      0.11320852	      1.13415239	     -0.23093108	      0.00000000	      0.50000000	      0.00000000	      0.25000000	     80.30202021	     -9.94649265	     -8.20177337	     84.98969151	      1.48334995	     18.25771663	      7.23727428	      0.00000000	      0.00000000	     59.54891046	    -17.77373633	     -4.28163977	     82.93716206	      1.44752655	      1.14822541	      3.72774417	      0.00000000	      0.00000000	    -55.70876016	      1.18700936	      4.17484104	     89.61609688	     -3.54899680	     27.86879911	     30.16968114	     28.71978069	      0.00000000	      0.00000000	     89.71900728	      0.99445436	     26.69698070	     28.86048687	     26.37132185	      0.00000000	      0.00000000
      7.53500000	    -13.14032719	     -3.87958691	     -1.11713205	      0.11305049	      1.13357349	     -0.23093702	      0.00000000	      0.50000000	      0.00000000	      0.25000000	     80.46021239	     -9.96396398	     -8.12172795	     84.80126089	      1.48006121	     18.23811772	      6.91715041	      0.00000000	      0.00000000	     59.94402192	    -17.67646704	     -4.29170787	     83.14651857	      1.45118051	      1.03569027	      3.59815618	      0.00000000	      0.00000000	    -55.34691998	      1.16111036	      3.99704565	     89.62660129	     -3.87044832	     30.29060152	     30.70926461	     22.30017939	      0.00000000	      0.00000000	     89.72232514	      0.46800471	     29.37911413	     29.84326565	     18.92943433	      0.00000000	      0.00000000
      7.54000000	    -13.17595011	     -3.83303527	     -1.07635355	      0.11300054	      1.13350118	     -0.23105357	      0.00000000	      0.50000000	      0.00000000	      0.25000000	     80.33469451	    -10.00301274	     -8.12173475	     84.57278369	      1.47607353	     18.37991717	      6.97838690	      0.00000000	      0.00000000	     60.08968716	    -17.63994192	     -4.29154877	     83.32869335	      1.45436006	      1.00192453	      3.62083613	      0.00000000	      0.00000000	    -55.29845644	      1.16108002	      3.94433008	     89.62300086	     -3.77757259	     29.82691598	     30.55347851	     22.97703957	      0.00000000	      0.00000000	     89.72318711	      0.66042276	     28.86874982	     29.57286832	     19.79097799	      0.00000000	      0.00000000
